<svg xmlns="http://www.w3.org/2000/svg" xmlns:xlink="http://www.w3.org/1999/xlink" viewBox="0 0 500 500"><defs><clipPath id="freepik--clip-path--inject-1--inject-2"><polygon points="122.68 213.83 89.75 203.08 86.82 195.34 80.13 195.13 67.99 192.83 69.45 195.34 84.73 206.43 88.5 208.31 122.94 226.3 122.68 213.83" style="fill:#fff;stroke:#263238;stroke-miterlimit:10;stroke-width:1.0039600000000002px"></polygon></clipPath><clipPath id="freepik--clip-path-2--inject-1--inject-2"><polygon points="86.82 195.34 83.68 193.46 77.41 195.76 78.45 197.01 86.82 195.34" style="fill:#fff;stroke:#263238;stroke-linejoin:round;stroke-width:1.0039600000000002px"></polygon></clipPath><clipPath id="freepik--clip-path-3--inject-1--inject-2"><path d="M129.67,144.06s-.51,4.5.76,7.39,8.32,12.68,8.32,12.68l-13.16,10.55s-5.46-11-6.5-12.78-2.29-9.44,1.1-14.93S128.46,140,129.67,144.06Z" style="fill:#fff;stroke:#263238;stroke-miterlimit:10;stroke-width:1.0039600000000002px"></path></clipPath><clipPath id="freepik--clip-path-4--inject-1--inject-2"><path d="M133.75,135.82c-.81-5-6.54-15.17-15.63-14.78-5.9.26-8.66,1.45-11.22,2.9a33,33,0,0,0-5.8,4.34c-4.44,5.33-6,6.79-5.14,10.87a12.24,12.24,0,0,0,.75,4.78c1.36,3.63,2.29,6,3.47,7.73-.36,1.69-1.3,6.15-1.35,7.17s3,.31,4.54-.08c2.86,6.4,8.1,10.84,9.73,11.35,2.84.89,7.33-3.78,9.71-7.4s.58-7.69.59-9.31,5.35-5.18,7.33-6.31S134.55,140.81,133.75,135.82Z" style="fill:#fff;stroke:#263238;stroke-miterlimit:10"></path></clipPath><clipPath id="freepik--clip-path-5--inject-1--inject-2"><path d="M144.65,171.54s7.09,4.83,7.25,16.24c.07,5-.45,9.67-1.6,17.86s-8.29,34.86-13.85,38.1-14.19-2.88-14.19-2.88L80.52,213.15,70.43,205l-5-9.44L67,192.56,79.31,202l-6.63-6.13,1.3-1.65,2.4,1.67,7,2.62,1.53,10,2.16,1.48L127,224.58s-.5-21.49-.13-25.6.88-14.44,5.28-21.93" style="fill:#fff;stroke:#263238;stroke-miterlimit:10;stroke-width:1.0039600000000002px"></path></clipPath></defs><!--Mobile login--><g id="freepik--background-simple--inject-1--inject-2"><path d="M409.13,103c-24.88-56.73-84.6-78.09-131.72-40-18.4,14.86-29.88,38.51-52.41,48-21.14,8.9-47.92,6.28-70.78,11.1C105.54,132.3,40,171,45,230.63c2.19,26.12,19.81,55.13,28.52,79.57,10,28.12,16,63.3,42.47,80.11,45.38,28.86,100.12,5.27,141-18,22-12.51,34.11-20.2,57.8-15.91,21.93,4,41.68,18,63.11,1.39,16.09-12.47,17.42-37.74,30.93-52.58,15.22-16.72,30.65-17.93,38.56-43.06,9.59-30.49-4.54-49.54-14.09-76.78S420.85,129.69,409.13,103Z" style="fill:#407BFF"></path><g style="opacity:0.7000000000000001"><path d="M409.13,103c-24.88-56.73-84.6-78.09-131.72-40-18.4,14.86-29.88,38.51-52.41,48-21.14,8.9-47.92,6.28-70.78,11.1C105.54,132.3,40,171,45,230.63c2.19,26.12,19.81,55.13,28.52,79.57,10,28.12,16,63.3,42.47,80.11,45.38,28.86,100.12,5.27,141-18,22-12.51,34.11-20.2,57.8-15.91,21.93,4,41.68,18,63.11,1.39,16.09-12.47,17.42-37.74,30.93-52.58,15.22-16.72,30.65-17.93,38.56-43.06,9.59-30.49-4.54-49.54-14.09-76.78S420.85,129.69,409.13,103Z" style="fill:#fff"></path></g></g><g id="freepik--Shadow--inject-1--inject-2"><ellipse cx="219.81" cy="428.05" rx="154.58" ry="9.63" style="fill:#407BFF"></ellipse><ellipse cx="219.81" cy="428.05" rx="154.58" ry="9.63" style="fill:#fff;opacity:0.8"></ellipse></g><g id="freepik--Device--inject-1--inject-2"><rect x="161.11" y="61.86" width="194.29" height="367" rx="19.43" style="fill:#263238"></rect><rect x="169.74" y="102.16" width="177.02" height="286.4" style="fill:#fff;stroke:#263238;stroke-miterlimit:10;stroke-width:1.33739px"></rect><circle cx="258.26" cy="191" r="38.37" transform="translate(-59.42 238.56) rotate(-45)" style="fill:#407BFF"></circle><path d="M308.63,370.55H207.89a1.72,1.72,0,0,1-1.73-1.72h0a1.72,1.72,0,0,1,1.73-1.73H308.63a1.72,1.72,0,0,1,1.72,1.73h0A1.72,1.72,0,0,1,308.63,370.55Z" style="fill:#407BFF"></path><rect x="200.59" y="250.94" width="115.33" height="20.67" rx="4.01" style="fill:#407BFF"></rect><rect x="200.59" y="289.6" width="115.33" height="20.67" rx="4.01" style="fill:#407BFF"></rect><path d="M277.36,210.14l-11.29-6.5v-5.37a17.66,17.66,0,0,0,3.47-6.77,3.64,3.64,0,0,0,1.21.21c1.4,0,2.29-4.34,2.44-7.44,1.63-3.45-.59-5.47-.59-5.47s.92-.92,1.53-4.61-2.15-2.15-4.3-5.53-3.69-7.06-10.75-7.06a9.7,9.7,0,0,0-9.22,5.84,23.36,23.36,0,0,0-5.22.61c-2.16.61-2.77,7.68-.93,10.45a10.53,10.53,0,0,1,1.28,4.93c-.49-.6-1-.76-1.28.6-.61,3.07,1.85,7.37,1.85,7.37l1.27-.36a18,18,0,0,0,3.61,7.23v5.37l-11.29,6.5a8.68,8.68,0,0,0-4.34,7.51v3.72a38.35,38.35,0,0,0,46.89,0v-3.72A8.66,8.66,0,0,0,277.36,210.14Z" style="fill:#263238"></path><path d="M215.2,305.13a1,1,0,0,1-.69-.29.93.93,0,0,1-.31-.7,1,1,0,0,1,.15-.51l1.8-2.88-3.51.11a.94.94,0,0,1-.72-.27,1,1,0,0,1,0-1.33.91.91,0,0,1,.72-.28l3.46.13-1.78-2.87a1,1,0,0,1-.15-.52.93.93,0,0,1,.31-.7,1,1,0,0,1,.69-.29.9.9,0,0,1,.81.52l1.71,3.09,1.69-3.07a1,1,0,0,1,.87-.56.91.91,0,0,1,.67.3,1,1,0,0,1,.28.71,1,1,0,0,1-.13.49l-1.81,2.9,3.51-.13a.91.91,0,0,1,.72.28.93.93,0,0,1,.26.66,1,1,0,0,1-.26.67.94.94,0,0,1-.72.27l-3.53-.11L221,303.6a1,1,0,0,1,.15.53,1,1,0,0,1-1,1,.88.88,0,0,1-.8-.54l-1.67-3-1.66,3A.94.94,0,0,1,215.2,305.13Z" style="fill:#263238"></path><path d="M231.42,305.13a1,1,0,0,1-.69-.29.93.93,0,0,1-.31-.7,1,1,0,0,1,.15-.51l1.8-2.88-3.5.11a1,1,0,0,1-.73-.27.95.95,0,0,1,.73-1.61l3.45.13-1.78-2.87a1,1,0,0,1-.15-.52.93.93,0,0,1,.31-.7,1,1,0,0,1,.69-.29.9.9,0,0,1,.81.52l1.71,3.09,1.69-3.07a1,1,0,0,1,.87-.56.89.89,0,0,1,.67.3,1,1,0,0,1,.29.71,1,1,0,0,1-.14.49l-1.81,2.9L239,299a.89.89,0,0,1,.71.28.93.93,0,0,1,.26.66,1,1,0,0,1-.26.67.92.92,0,0,1-.71.27l-3.54-.11,1.76,2.85a1,1,0,0,1,.15.53,1,1,0,0,1-1,1,.88.88,0,0,1-.8-.54l-1.67-3-1.66,3A.94.94,0,0,1,231.42,305.13Z" style="fill:#263238"></path><path d="M247.65,305.13a1,1,0,0,1-.7-.29.93.93,0,0,1-.31-.7,1,1,0,0,1,.15-.51l1.8-2.88-3.5.11a.95.95,0,0,1-.73-1.6.94.94,0,0,1,.73-.28l3.45.13-1.78-2.87a1,1,0,0,1-.15-.52,1,1,0,0,1,.31-.7,1,1,0,0,1,.7-.29.9.9,0,0,1,.8.52l1.71,3.09,1.69-3.07a1,1,0,0,1,.87-.56.89.89,0,0,1,.67.3,1,1,0,0,1,.29.71,1,1,0,0,1-.14.49l-1.81,2.9,3.52-.13a.91.91,0,0,1,1,.94,1,1,0,0,1-.25.67.94.94,0,0,1-.72.27l-3.53-.11,1.75,2.85a1,1,0,0,1,.15.53,1,1,0,0,1-.31.7.94.94,0,0,1-.68.3.87.87,0,0,1-.79-.54l-1.68-3-1.66,3A.93.93,0,0,1,247.65,305.13Z" style="fill:#263238"></path><path d="M263.87,305.13a1,1,0,0,1-.7-.29,1,1,0,0,1-.3-.7.94.94,0,0,1,.14-.51l1.8-2.88-3.5.11a1,1,0,0,1-.73-.27,1,1,0,0,1,0-1.33,1,1,0,0,1,.73-.28l3.46.13L263,296.24a1,1,0,0,1-.15-.52,1,1,0,0,1,.31-.7,1,1,0,0,1,.7-.29.9.9,0,0,1,.81.52l1.7,3.09,1.69-3.07a1,1,0,0,1,.87-.56.89.89,0,0,1,.67.3,1,1,0,0,1,.29.71,1,1,0,0,1-.14.49l-1.81,2.9,3.52-.13a.91.91,0,0,1,1,.94,1,1,0,0,1-.25.67.94.94,0,0,1-.72.27l-3.53-.11,1.75,2.85a1,1,0,0,1,.15.53.93.93,0,0,1-.31.7.94.94,0,0,1-.68.3.87.87,0,0,1-.79-.54l-1.68-3-1.66,3A.93.93,0,0,1,263.87,305.13Z" style="fill:#263238"></path><path d="M280.09,305.13a1,1,0,0,1-.7-.29,1,1,0,0,1-.15-1.21l1.79-2.88-3.5.11a1,1,0,0,1-.73-.27,1,1,0,0,1,0-1.33,1,1,0,0,1,.73-.28l3.46.13-1.78-2.87a1,1,0,0,1-.15-.52,1,1,0,0,1,.3-.7,1,1,0,0,1,.7-.29.9.9,0,0,1,.81.52l1.7,3.09,1.69-3.07a1,1,0,0,1,.87-.56.91.91,0,0,1,.68.3,1,1,0,0,1,.28.71,1,1,0,0,1-.14.49l-1.81,2.9,3.52-.13a.91.91,0,0,1,1,.94,1,1,0,0,1-.25.67.94.94,0,0,1-.72.27l-3.53-.11,1.75,2.85a1,1,0,0,1,.15.53.93.93,0,0,1-.31.7.94.94,0,0,1-.68.3.87.87,0,0,1-.79-.54l-1.68-3-1.66,3A.93.93,0,0,1,280.09,305.13Z" style="fill:#263238"></path><path d="M296.31,305.13a1,1,0,0,1-.69-.29.93.93,0,0,1-.31-.7,1,1,0,0,1,.15-.51l1.79-2.88-3.5.11a.93.93,0,0,1-1-.94.93.93,0,0,1,.27-.66.91.91,0,0,1,.72-.28l3.46.13-1.78-2.87a1,1,0,0,1-.15-.52,1,1,0,0,1,.3-.7,1,1,0,0,1,.7-.29.9.9,0,0,1,.81.52l1.7,3.09,1.7-3.07a1,1,0,0,1,.86-.56.91.91,0,0,1,.68.3,1,1,0,0,1,.28.71,1,1,0,0,1-.13.49l-1.81,2.9,3.51-.13a.91.91,0,0,1,.72.28.93.93,0,0,1,.26.66,1,1,0,0,1-.26.67.94.94,0,0,1-.72.27l-3.53-.11,1.75,2.85a1,1,0,0,1,.15.53,1,1,0,0,1-.3.7,1,1,0,0,1-.69.3.87.87,0,0,1-.79-.54l-1.68-3-1.66,3A.93.93,0,0,1,296.31,305.13Z" style="fill:#263238"></path><rect x="169.74" y="102.54" width="177.02" height="11.09" style="fill:#407BFF;mix-blend-mode:multiply"></rect><path d="M277.5,82.11H239a2.62,2.62,0,0,1-2.62-2.62h0A2.62,2.62,0,0,1,239,76.87H277.5a2.62,2.62,0,0,1,2.62,2.62h0A2.62,2.62,0,0,1,277.5,82.11Z" style="fill:#407BFF;stroke:#263238;stroke-linecap:round;stroke-linejoin:round;stroke-width:1.33739px"></path><path d="M268.75,404.74a10.5,10.5,0,1,0-10.49,10.49A10.5,10.5,0,0,0,268.75,404.74Z" style="fill:#407BFF"></path><rect x="252.94" y="399.42" width="10.64" height="10.64" style="fill:#407BFF;stroke:#263238;stroke-linecap:round;stroke-linejoin:round;stroke-width:1.33739px"></rect></g></svg>